grf
version=1
nRows=9
nColumns=37
inDegrees=no
endheader
time	ground_force_1_vx	ground_force_1_vy	ground_force_1_vz	ground_force_1_px	ground_force_1_py	ground_force_1_pz	ground_moment_1_mx	ground_moment_1_my	ground_moment_1_mz	ground_force_2_vx	ground_force_2_vy	ground_force_2_vz	ground_force_2_px	ground_force_2_py	ground_force_2_pz	ground_moment_2_mx	ground_moment_2_my	ground_moment_2_mz	ground_force_3_vx	ground_force_3_vy	ground_force_3_vz	ground_force_3_px	ground_force_3_py	ground_force_3_pz	ground_moment_3_mx	ground_moment_3_my	ground_moment_3_mz	ground_force_4_vx	ground_force_4_vy	ground_force_4_vz	ground_force_4_px	ground_force_4_py	ground_force_4_pz	ground_moment_4_mx	ground_moment_4_my	ground_moment_4_mz
      0.00000000	      0.00000000	     -0.00000000	      0.00000000	      0.00000000	      0.00000000	      0.00000000	      0.00000000	      0.00000000	      0.00000000	     -1.81117046	     37.11525726	   -363.29547119	   -274.55319508	  -1092.60400777	      0.00000000	     -0.00000000	      0.00000000	   2364.96285882	     -1.14203593	    -39.19809331	   -403.92434692	   -270.96392090	   -743.44933043	      0.00000000	      0.00000000	     -0.00000000	  -2571.78926372	      0.00000000	     -0.00000000	      0.00000000	      0.00000000	      0.00000000	      0.00000000	      0.00000000	      0.00000000	      0.00000000
      0.01000000	      0.00000000	     -0.00000000	      0.00000000	      0.00000000	      0.00000000	      0.00000000	      0.00000000	      0.00000000	      0.00000000	     -1.96263123	     37.03129959	   -363.06896973	   -275.54961047	  -1092.34905309	      0.00000000	      0.00000000	      0.00000000	   2323.62918794	     -0.92346138	    -39.56811515	   -402.38674927	   -271.47837005	   -744.75685076	      0.00000000	      0.00000000	     -0.00000000	  -2511.67670386	      0.00000000	     -0.00000000	      0.00000000	      0.00000000	      0.00000000	      0.00000000	      0.00000000	      0.00000000	      0.00000000
      0.02000000	      0.00000000	     -0.00000000	      0.00000000	      0.00000000	      0.00000000	      0.00000000	      0.00000000	      0.00000000	      0.00000000	     -2.06099415	     36.08409500	   -363.90664673	   -274.95575401	  -1092.75496166	      0.00000000	      0.00000000	      0.00000000	   2262.97823679	     -0.88711130	    -39.51115791	   -403.49530029	   -271.24552070	   -743.59426783	      0.00000000	     -0.00000000	     -0.00000000	  -2529.74625826	      0.00000000	     -0.00000000	      0.00000000	      0.00000000	      0.00000000	      0.00000000	      0.00000000	      0.00000000	      0.00000000
      0.03000000	      0.00000000	     -0.00000000	      0.00000000	      0.00000000	      0.00000000	      0.00000000	      0.00000000	      0.00000000	      0.00000000	     -1.77559471	     36.89998627	   -362.86682129	   -275.68796392	  -1091.84754348	      0.00000000	      0.00000000	      0.00000000	   2268.47987966	     -0.92415523	    -39.42835609	   -402.36846924	   -271.59679265	   -744.72222540	      0.00000000	      0.00000000	     -0.00000000	  -2549.71130994	      0.00000000	     -0.00000000	      0.00000000	      0.00000000	      0.00000000	      0.00000000	      0.00000000	      0.00000000	      0.00000000
      0.04000000	      0.00000000	     -0.00000000	      0.00000000	      0.00000000	      0.00000000	      0.00000000	      0.00000000	      0.00000000	      0.00000000	     -1.73354423	     36.50495529	   -364.00793457	   -277.07911828	  -1091.66321233	      0.00000000	      0.00000000	      0.00000000	   2234.86968198	     -0.78457480	    -39.43792718	   -402.71917725	   -272.11961863	   -744.32961569	      0.00000000	      0.00000000	     -0.00000000	  -2548.95260552	      0.00000000	     -0.00000000	      0.00000000	      0.00000000	      0.00000000	      0.00000000	      0.00000000	      0.00000000	      0.00000000
      0.05000000	      0.00000000	     -0.00000000	      0.00000000	      0.00000000	      0.00000000	      0.00000000	      0.00000000	      0.00000000	      0.00000000	     -1.65988719	     36.26848984	   -363.11410522	   -276.92074958	  -1091.59546584	      0.00000000	     -0.00000000	      0.00000000	   2389.46729713	     -0.53226816	    -39.43346019	   -401.35839844	   -272.68734499	   -745.13481556	      0.00000000	      0.00000000	     -0.00000000	  -2560.62664165	      0.00000000	     -0.00000000	      0.00000000	      0.00000000	      0.00000000	      0.00000000	      0.00000000	      0.00000000	      0.00000000
      0.06000000	      0.00000000	     -0.00000000	      0.00000000	      0.00000000	      0.00000000	      0.00000000	      0.00000000	      0.00000000	      0.00000000	     -1.28460944	     36.36878204	   -363.40798950	   -277.61047645	  -1090.93526754	      0.00000000	      0.00000000	      0.00000000	   2473.54762405	     -0.53641599	    -39.52189250	   -402.38909912	   -272.56546258	   -744.08044812	      0.00000000	      0.00000000	     -0.00000000	  -2506.07481741	      0.00000000	     -0.00000000	      0.00000000	      0.00000000	      0.00000000	      0.00000000	      0.00000000	      0.00000000	      0.00000000
      0.07000000	      0.00000000	     -0.00000000	      0.00000000	      0.00000000	      0.00000000	      0.00000000	      0.00000000	      0.00000000	      0.00000000	     -1.24894714	     36.05491638	   -364.66488647	   -277.97762035	  -1091.51261580	      0.00000000	      0.00000000	     -0.00000000	   2521.21556637	     -0.57857651	    -39.65254969	   -402.75408936	   -272.97306553	   -744.47328879	      0.00000000	      0.00000000	     -0.00000000	  -2475.11993759	      0.00000000	     -0.00000000	      0.00000000	      0.00000000	      0.00000000	      0.00000000	      0.00000000	      0.00000000	      0.00000000
      0.08000000	      0.00000000	     -0.00000000	      0.00000000	      0.00000000	      0.00000000	      0.00000000	      0.00000000	      0.00000000	      0.00000000	     -1.42736816	     36.40211105	   -364.06781006	   -278.58082475	  -1090.14509227	      0.00000000	      0.00000000	     -0.00000000	   2311.28210220	     -0.31595069	    -39.47254941	   -402.54318237	   -273.22297815	   -744.94442666	      0.00000000	      0.00000000	     -0.00000000	  -2431.57964177	      0.00000000	     -0.00000000	      0.00000000	      0.00000000	      0.00000000	      0.00000000	      0.00000000	      0.00000000	      0.00000000
